<?xml version="1.0" encoding="utf-8"?>
<!-- Generator: Adobe Illustrator 24.0.2, SVG Export Plug-In . SVG Version: 6.00 Build 0)  -->
<svg version="1.1" id="Layer_1" xmlns="http://www.w3.org/2000/svg" xmlns:xlink="http://www.w3.org/1999/xlink" x="0px" y="0px"
	 viewBox="0 0 512 512" style="enable-background:new 0 0 512 512;" xml:space="preserve">
<style type="text/css">
	.st0{fill:#00CCFF;}
	.st1{fill-rule:evenodd;clip-rule:evenodd;fill:#FFFFFF;}
</style>
<g>
	<g>
		<g>
			<path class="st0" d="M503.6277,98.9293c-15.8539,7.1724-33.3008,11.5266-50.4099,14.3986
				c8.1227-1.3628,20.0931-16.0676,24.8777-22.0133c7.3009-9.0701,13.3735-19.4058,16.7879-30.5663
				c0.4348-0.8711,0.7665-1.9664-0.1046-2.6269c-1.0953-0.4348-1.8006-0.2122-2.6717,0.2241
				c-19.0965,10.2326-38.8504,17.6575-59.8715,22.9113c-1.7423,0.4363-3.0348,0-4.1301-1.0938
				c-1.7408-1.9679-3.3785-3.8208-5.2328-5.3524c-8.8355-7.5176-18.3165-13.4154-29.0048-17.7711
				c-14.0355-5.7215-29.3694-8.1451-44.4853-7.1649c-14.7064,0.9548-29.1497,5.1014-42.2035,11.9211
				c-13.0806,6.8347-24.7522,16.3411-34.0464,27.8109c-9.614,11.8628-16.7042,25.8744-20.3337,40.7227
				c-3.504,14.3313-3.2171,28.5087-1.0788,42.997c0.3242,2.4013,0.1136,2.7255-2.0636,2.4013
				C167.4175,163.4898,99.2485,134.0606,43.912,71.0033c-2.4027-2.7375-3.7072-2.7375-5.6752,0.2107
				c-24.2158,36.2953-12.4665,94.6127,17.7845,123.2694c4.0315,3.8208,8.1765,7.6416,12.6443,11.1262
				c-1.6302,0.3347-21.7622-1.8454-39.7007-11.1262c-2.4027-1.5182-3.6086-0.647-3.8208,2.0785
				c-0.2226,3.9209,0.1121,7.5295,0.65,11.7851c4.6471,36.7928,30.1285,70.8273,65.0222,84.1052
				c4.145,1.7423,8.7249,3.2724,13.1942,4.0315c-7.9524,1.7423-16.1409,2.99-38.9416,1.2058
				c-2.8376-0.5454-3.9209,0.8727-2.8376,3.5981c17.1345,46.6997,54.1186,60.5932,81.816,68.5098
				c3.7072,0.6485,7.4174,0.6485,11.1351,1.5197c-0.2227,0.3347-0.4453,0.3347-0.6575,0.6589
				c-9.1881,14.0056-41.041,24.4295-55.8729,29.613c-26.9756,9.4272-56.3481,13.6694-84.8568,10.8587
				c-4.5634-0.6694-5.5212-0.6201-6.7585,0c-1.2522,0.774-0.1584,1.8633,1.306,3.0497c5.7872,3.8193,11.6746,7.2053,17.674,10.4792
				c18.1073,9.5946,36.9841,17.2346,56.7231,22.6872c101.939,28.1516,216.7675,7.4653,293.3088-68.583
				c60.1076-59.7206,81.1735-142.0775,81.1735-224.539c0-3.2276,3.8133-5.0102,6.0801-6.7122
				c15.6388-11.7508,28.068-25.8116,39.7336-41.5132c2.6209-3.5279,2.4595-6.6643,2.4595-7.9524c0-0.2226,0-0.4348,0-0.4348
				C505.4955,97.6114,505.6569,98.0074,503.6277,98.9293z"/>
		</g>
		<g>
			<path class="st1" d="M154.6851,458.9174C196.9573,458.9174,156.7142,458.9174,154.6851,458.9174
				C160.2481,458.9174,154.4609,458.9174,154.6851,458.9174z"/>
		</g>
		<g>
			<path class="st1" d="M154.6851,458.9174C154.0291,458.9682,146.4488,458.9174,154.6851,458.9174
				C154.6851,458.9174,153.3656,458.9174,154.6851,458.9174z"/>
		</g>
		<g>
			<path class="st1" d="M171.4849,459.3537C171.4849,458.5125,180.3263,459.3537,171.4849,459.3537
				C171.4849,458.9174,172.5697,459.3537,171.4849,459.3537z"/>
		</g>
		<g>
			<path class="st1" d="M347.9839,50.2692c-0.5484,0.4348-1.3075,0.4348-2.0651,0
				C346.6764,50.2692,347.4355,50.2692,347.9839,50.2692z"/>
		</g>
	</g>
</g>
</svg>
